<?xml version="1.0" encoding="us-ascii" standalone="no"?><svg xmlns="http://www.w3.org/2000/svg" xmlns:xlink="http://www.w3.org/1999/xlink" contentStyleType="text/css" height="383px" preserveAspectRatio="none" style="width:652px;height:383px;background:#FFFFFF;" version="1.1" viewBox="0 0 652 383" width="652px" zoomAndPan="magnify"><defs/><g><!--entity User--><g id="elem_User"><ellipse cx="405.44" cy="14" fill="#F1F1F1" rx="8" ry="8" style="stroke:#181818;stroke-width:0.5;"/><path d="M405.44,22 L405.44,49 M392.44,30 L418.44,30 M405.44,49 L392.44,64 M405.44,49 L418.44,64 " fill="none" style="stroke:#181818;stroke-width:0.5;"/><text fill="#000000" font-family="sans-serif" font-size="14" lengthAdjust="spacing" textLength="32" x="389.44" y="78.4951">User</text></g><g id="elem_Telegram Bot"><ellipse cx="405.4434" cy="158.2127" fill="#F1F1F1" rx="70.0634" ry="16.4127" style="stroke:#181818;stroke-width:0.5;"/><text fill="#000000" font-family="sans-serif" font-size="14" lengthAdjust="spacing" textLength="93" x="355.9434" y="161.9602">Telegram Bot</text></g><g id="elem_Parsing Module"><ellipse cx="208.4448" cy="254.519" fill="#F1F1F1" rx="74.9948" ry="17.399" style="stroke:#181818;stroke-width:0.5;"/><text fill="#000000" font-family="sans-serif" font-size="14" lengthAdjust="spacing" textLength="106" x="152.4448" y="258.2665">Parsing Module</text></g><g id="elem_Command Handlers"><ellipse cx="405.4444" cy="254.5249" fill="#F1F1F1" rx="87.4744" ry="19.8949" style="stroke:#181818;stroke-width:0.5;"/><text fill="#000000" font-family="sans-serif" font-size="14" lengthAdjust="spacing" textLength="136" x="337.4444" y="257.3716">Command Handlers</text></g><g id="elem_New Holland Website"><ellipse cx="97.4431" cy="355.9086" fill="#F1F1F1" rx="91.4431" ry="20.6886" style="stroke:#181818;stroke-width:0.5;"/><text fill="#000000" font-family="sans-serif" font-size="14" lengthAdjust="spacing" textLength="145" x="24.9431" y="358.7553">New Holland Website</text></g><g id="elem_Sevcable Port Website"><ellipse cx="319.4404" cy="355.9121" fill="#F1F1F1" rx="95.4604" ry="21.4921" style="stroke:#181818;stroke-width:0.5;"/><text fill="#000000" font-family="sans-serif" font-size="14" lengthAdjust="spacing" textLength="154" x="242.4404" y="358.7588">Sevcable Port Website</text></g><g id="elem_Database"><ellipse cx="587.4397" cy="254.5171" fill="#F1F1F1" rx="59.3197" ry="14.7671" style="stroke:#181818;stroke-width:0.5;"/><text fill="#000000" font-family="sans-serif" font-size="14" lengthAdjust="spacing" textLength="66" x="551.4397" y="258.2647">Database</text></g><!--link User to Telegram Bot--><g id="link_User_Telegram Bot"><path d="M405.44,82.13 C405.44,102.34 405.44,120.21 405.44,135.51 " fill="none" id="User-to-Telegram Bot" style="stroke:#181818;stroke-width:1.0;"/><polygon fill="#181818" points="405.44,141.51,409.44,132.51,405.44,136.51,401.44,132.51,405.44,141.51" style="stroke:#181818;stroke-width:1.0;"/></g><!--link Telegram Bot to Parsing Module--><g id="link_Telegram Bot_Parsing Module"><path d="M375.95,173.33 C339.46,190.8 282.9714,217.8384 245.5114,235.7784 " fill="none" id="Telegram Bot-to-Parsing Module" style="stroke:#181818;stroke-width:1.0;"/><polygon fill="#181818" points="240.1,238.37,249.9449,238.0902,244.6095,236.2103,246.4894,230.875,240.1,238.37" style="stroke:#181818;stroke-width:1.0;"/></g><!--link Telegram Bot to Command Handlers--><g id="link_Telegram Bot_Command Handlers"><path d="M405.44,174.79 C405.44,191.11 405.44,210.78 405.44,228.34 " fill="none" id="Telegram Bot-to-Command Handlers" style="stroke:#181818;stroke-width:1.0;"/><polygon fill="#181818" points="405.44,234.34,409.44,225.34,405.44,229.34,401.44,225.34,405.44,234.34" style="stroke:#181818;stroke-width:1.0;"/></g><!--link Parsing Module to New Holland Website--><g id="link_Parsing Module_New Holland Website"><path d="M190.61,271.49 C171.12,288.94 144.3698,312.8874 123.5098,331.5674 " fill="none" id="Parsing Module-to-New Holland Website" style="stroke:#181818;stroke-width:1.0;"/><polygon fill="#181818" points="119.04,335.57,128.4131,332.5459,122.7648,332.2345,123.0762,326.5862,119.04,335.57" style="stroke:#181818;stroke-width:1.0;"/></g><!--link Parsing Module to Sevcable Port Website--><g id="link_Parsing Module_Sevcable Port Website"><path d="M226.28,271.49 C245.52,288.72 271.7301,312.1875 292.5801,330.8575 " fill="none" id="Parsing Module-to-Sevcable Port Website" style="stroke:#181818;stroke-width:1.0;"/><polygon fill="#181818" points="297.05,334.86,293.0135,325.8763,293.3251,331.5246,287.6768,331.8361,297.05,334.86" style="stroke:#181818;stroke-width:1.0;"/></g><!--link Telegram Bot to Database--><g id="link_Telegram Bot_Database"><path d="M433.08,173.54 C468.39,191.83 523.6124,220.4501 557.4324,237.9701 " fill="none" id="Telegram Bot-to-Database" style="stroke:#181818;stroke-width:1.0;"/><polygon fill="#181818" points="562.76,240.73,556.6086,233.0385,558.3204,238.4301,552.9287,240.1419,562.76,240.73" style="stroke:#181818;stroke-width:1.0;"/></g><!--SRC=[TSsn2i9W30JWlK-HqGvz1GTrwA8KL9ppjqSfv6yWIVNrRUcYKfU3W-yuRaEDxWuhbg2gsjFk1a5ldEcWKHRVTHKDcmzZJsVj9i6sEMhEF7PKpo4mdzNFR7KNlAXMaSK-a7m8_ADNF5jE0chKuWDll9yuEB6ZV0C0]--></g></svg>