<?xml version="1.0" encoding="us-ascii" standalone="no"?><svg xmlns="http://www.w3.org/2000/svg" xmlns:xlink="http://www.w3.org/1999/xlink" contentStyleType="text/css" height="283px" preserveAspectRatio="none" style="width:420px;height:283px;background:#FFFFFF;" version="1.1" viewBox="0 0 420 283" width="420px" zoomAndPan="magnify"><defs/><g><!--entity User--><g id="elem_User"><ellipse cx="208.44" cy="14" fill="#F1F1F1" rx="8" ry="8" style="stroke:#181818;stroke-width:0.5;"/><path d="M208.44,22 L208.44,49 M195.44,30 L221.44,30 M208.44,49 L195.44,64 M208.44,49 L221.44,64 " fill="none" style="stroke:#181818;stroke-width:0.5;"/><text fill="#000000" font-family="sans-serif" font-size="14" lengthAdjust="spacing" textLength="32" x="192.44" y="78.4951">User</text></g><g id="elem_Telegram Bot"><ellipse cx="208.4434" cy="158.2127" fill="#F1F1F1" rx="70.0634" ry="16.4127" style="stroke:#181818;stroke-width:0.5;"/><text fill="#000000" font-family="sans-serif" font-size="14" lengthAdjust="spacing" textLength="93" x="158.9434" y="161.9602">Telegram Bot</text></g><g id="elem_New Holland Website"><ellipse cx="97.4431" cy="256.1186" fill="#F1F1F1" rx="91.4431" ry="20.6886" style="stroke:#181818;stroke-width:0.5;"/><text fill="#000000" font-family="sans-serif" font-size="14" lengthAdjust="spacing" textLength="145" x="24.9431" y="258.9653">New Holland Website</text></g><g id="elem_Sevcable Port Website"><ellipse cx="319.4404" cy="256.1221" fill="#F1F1F1" rx="95.4604" ry="21.4921" style="stroke:#181818;stroke-width:0.5;"/><text fill="#000000" font-family="sans-serif" font-size="14" lengthAdjust="spacing" textLength="154" x="242.4404" y="258.9688">Sevcable Port Website</text></g><!--link User to Telegram Bot--><g id="link_User_Telegram Bot"><path d="M208.44,82.13 C208.44,102.34 208.44,120.21 208.44,135.51 " fill="none" id="User-to-Telegram Bot" style="stroke:#181818;stroke-width:1.0;"/><polygon fill="#181818" points="208.44,141.51,212.44,132.51,208.44,136.51,204.44,132.51,208.44,141.51" style="stroke:#181818;stroke-width:1.0;"/></g><!--link Telegram Bot to New Holland Website--><g id="link_Telegram Bot_New Holland Website"><path d="M191.1,174.2 C171.95,190.74 145.6112,213.5086 124.5812,231.6686 " fill="none" id="Telegram Bot-to-New Holland Website" style="stroke:#181818;stroke-width:1.0;"/><polygon fill="#181818" points="120.04,235.59,129.4661,232.7353,123.8243,232.3221,124.2375,226.6804,120.04,235.59" style="stroke:#181818;stroke-width:1.0;"/></g><!--link Telegram Bot to Sevcable Port Website--><g id="link_Telegram Bot_Sevcable Port Website"><path d="M225.79,174.2 C244.69,190.53 270.5005,212.8266 291.5005,230.9766 " fill="none" id="Telegram Bot-to-Sevcable Port Website" style="stroke:#181818;stroke-width:1.0;"/><polygon fill="#181818" points="296.04,234.9,291.8464,225.9886,292.2571,231.6305,286.6152,232.0412,296.04,234.9" style="stroke:#181818;stroke-width:1.0;"/></g><!--SRC=[IqmkoIzI22rEBU824GgwkdOA6Y6fEQdfHOcv2axv9PfSg5o82h_KSWMF_9oSnBmKXV3KfEBCabJi2eDJov8Jat9I5GBoYqhWIW40]--></g></svg>